<?xml version="1.0" standalone="no"?>
<!DOCTYPE svg PUBLIC "-//W3C//DTD SVG 20010904//EN"
 "http://www.w3.org/TR/2001/REC-SVG-20010904/DTD/svg10.dtd">
<svg version="1.0" xmlns="http://www.w3.org/2000/svg"
 width="260.000000pt" height="260.000000pt" viewBox="0 0 260.000000 260.000000"
 preserveAspectRatio="xMidYMid meet">
<metadata>
Created by potrace 1.11, written by Peter Selinger 2001-2013
</metadata>
<g transform="translate(0.000000,260.000000) scale(0.100000,-0.100000)"
fill="#000000" stroke="none">
<path d="M140 1300 l0 -1160 1160 0 1160 0 0 1160 0 1160 -1160 0 -1160 0 0
-1160z m642 480 l3 -600 45 59 c25 32 135 165 245 294 l200 236 144 1 143 0
-90 -97 c-50 -54 -161 -172 -246 -263 -86 -91 -154 -170 -152 -176 3 -8 500
-680 549 -741 7 -10 -21 -13 -135 -13 l-144 0 -214 297 c-118 163 -218 301
-223 307 -4 7 -30 -14 -67 -54 l-59 -65 -1 -242 0 -243 -115 0 -115 0 0 950 0
950 115 0 115 0 2 -600z"/>
</g>
</svg>
